<svg xmlns="http://www.w3.org/2000/svg" width="1600" height="1000" viewBox="0 0 1600 1000" role="img" aria-label="Imagen representativa">
  <defs>
    <linearGradient id="bg" x1="0" y1="0" x2="1" y2="1">
      <stop offset="0" stop-color="#0b1020"/>
      <stop offset="0.55" stop-color="#0e4468"/>
      <stop offset="1" stop-color="#031018"/>
    </linearGradient>
    <linearGradient id="glow" x1="0" y1="1" x2="1" y2="0">
      <stop offset="0" stop-color="#199ef0" stop-opacity="0.0"/>
      <stop offset="0.6" stop-color="#199ef0" stop-opacity="0.18"/>
      <stop offset="1" stop-color="#8dd6ff" stop-opacity="0.18"/>
    </linearGradient>
    <pattern id="grid" width="40" height="40" patternUnits="userSpaceOnUse">
      <path d="M40 0H0V40" fill="none" stroke="#ffffff" stroke-opacity="0.06"/>
    </pattern>
  </defs>

  <rect width="1600" height="1000" fill="url(#bg)"/>
  <rect width="1600" height="1000" fill="url(#grid)"/>

  <g opacity="0.75">
    <circle cx="1180" cy="260" r="180" fill="url(#glow)"/>
    <circle cx="1280" cy="760" r="220" fill="url(#glow)"/>
  </g>

  <g transform="translate(220,240)" opacity="0.9">
    <rect x="0" y="0" width="420" height="520" rx="28" fill="#0b1226" fill-opacity="0.55" stroke="#ffffff" stroke-opacity="0.08"/>
    <rect x="54" y="64" width="312" height="16" rx="8" fill="#8dd6ff" fill-opacity="0.55"/>
    <rect x="54" y="108" width="240" height="12" rx="6" fill="#ffffff" fill-opacity="0.20"/>
    <rect x="54" y="142" width="286" height="12" rx="6" fill="#ffffff" fill-opacity="0.16"/>
    <rect x="54" y="176" width="190" height="12" rx="6" fill="#ffffff" fill-opacity="0.14"/>
    <g transform="translate(54,250)" fill="none" stroke="#ffffff" stroke-opacity="0.18">
      <path d="M0 0h312"/>
      <path d="M0 46h312"/>
      <path d="M0 92h312"/>
      <path d="M0 138h312"/>
      <path d="M0 184h312"/>
      <path d="M0 230h312"/>
    </g>
  </g>

  <g transform="translate(980,180)" opacity="0.85">
    <path d="M220 0c110 0 200 90 200 200S330 400 220 400 20 310 20 200 110 0 220 0Z" fill="#0b1226" fill-opacity="0.40"/>
    <path d="M220 84c64 0 116 52 116 116s-52 116-116 116-116-52-116-116 52-116 116-116Z" fill="#199ef0" fill-opacity="0.20"/>
    <path d="M220 126c41 0 74 33 74 74s-33 74-74 74-74-33-74-74 33-74 74-74Z" fill="#ffffff" fill-opacity="0.10"/>
  </g>
</svg>
